<svg viewBox="0 0 32 33" xmlns="http://www.w3.org/2000/svg">
<path d="M16.0001 3.16675C14.2491 3.16675 12.5153 3.51162 10.8976 4.18169C9.27996 4.85175 7.81011 5.83388 6.57199 7.07199C4.07151 9.57248 2.66675 12.9639 2.66675 16.5001C2.66675 22.3934 6.49341 27.3934 11.7867 29.1667C12.4534 29.2734 12.6667 28.8601 12.6667 28.5001V26.2467C8.97341 27.0467 8.18675 24.4601 8.18675 24.4601C7.57341 22.9134 6.70675 22.5001 6.70675 22.5001C5.49341 21.6734 6.80008 21.7001 6.80008 21.7001C8.13341 21.7934 8.84008 23.0734 8.84008 23.0734C10.0001 25.1001 11.9601 24.5001 12.7201 24.1801C12.8401 23.3134 13.1867 22.7267 13.5601 22.3934C10.6001 22.0601 7.49341 20.9134 7.49341 15.8334C7.49341 14.3534 8.00008 13.1667 8.86675 12.2201C8.73341 11.8867 8.26675 10.5001 9.00008 8.70008C9.00008 8.70008 10.1201 8.34008 12.6667 10.0601C13.7201 9.76675 14.8667 9.62008 16.0001 9.62008C17.1334 9.62008 18.2801 9.76675 19.3334 10.0601C21.8801 8.34008 23.0001 8.70008 23.0001 8.70008C23.7334 10.5001 23.2667 11.8867 23.1334 12.2201C24.0001 13.1667 24.5067 14.3534 24.5067 15.8334C24.5067 20.9267 21.3867 22.0467 18.4134 22.3801C18.8934 22.7934 19.3334 23.6067 19.3334 24.8467V28.5001C19.3334 28.8601 19.5467 29.2867 20.2267 29.1667C25.5201 27.3801 29.3334 22.3934 29.3334 16.5001C29.3334 14.7491 28.9885 13.0153 28.3185 11.3976C27.6484 9.77996 26.6663 8.31011 25.4282 7.07199C24.1901 5.83388 22.7202 4.85175 21.1025 4.18169C19.4849 3.51162 17.751 3.16675 16.0001 3.16675Z" fill="currentColor"/>
</svg>
