<svg preserveAspectRatio="none"  viewBox="0 0 441 396" fill="none" xmlns="http://www.w3.org/2000/svg">
<rect x="14" y="2" width="425" height="380" rx="10" fill="white"/>

<g clip-path="url(#clip0_1514_103639)">
<path d="M2.00006 40C2.00006 40 1.96581 36.505 3.5 29.5C5.33576 21.118 9.99999 13.5 11.5 9.66667V9.66667C13.273 5.13559 17.2018 2 22.0674 2H38" stroke="#A79F91" stroke-width="4"/>
<path d="M4.97164 28.6917C9.45192 24.9895 11.1084 21.6258 14.5349 17.2556C15.232 16.4119 13.5474 15.8762 12.8503 16.7199C9.46536 20.9036 7.9092 24.2326 3.49986 27.8242C2.77349 28.5919 4.11569 29.4182 4.97164 28.6917Z" fill="#A79F91"/>
<path d="M2.68784 40.6808C7.16811 36.9786 10.8245 32.6149 14.2511 28.2447C14.9482 27.401 13.2636 26.8653 12.5665 27.709C9.18156 31.8927 5.6254 36.2217 1.21606 39.8133C0.48969 40.581 1.83189 41.4074 2.68784 40.6808Z" fill="#A79F91"/>
</g>
<path d="M2.95835 46.5422C7.43862 42.84 11.0951 38.4763 14.5216 34.1061C15.2187 33.2625 13.5341 32.7268 12.837 33.5704C9.45207 37.7541 5.89591 42.0831 1.48657 45.6747C0.760198 46.4425 2.10239 47.2688 2.95835 46.5422Z" fill="#A79F91"/>
<path d="M2.95835 58.7747C7.43862 55.0725 11.0951 50.7088 14.5216 46.3386C15.2187 45.4949 13.5341 44.9592 12.837 45.8029C9.45207 49.9866 5.89591 54.3155 1.48657 57.9071C0.760198 58.6749 2.10239 59.5012 2.95835 58.7747Z" fill="#A79F91"/>
<path d="M2.95835 71.0072C7.43862 67.305 11.0951 62.9413 14.5216 58.5711C15.2187 57.7274 13.5341 57.1917 12.837 58.0354C9.45207 62.2191 5.89591 66.5481 1.48657 70.1397C0.760198 70.9075 2.10239 71.7338 2.95835 71.0072Z" fill="#A79F91"/>
<path d="M2.95835 83.2396C7.43862 79.5374 11.0951 75.1737 14.5216 70.8035C15.2187 69.9598 13.5341 69.4242 12.837 70.2678C9.45207 74.4515 5.89591 78.7805 1.48657 82.3721C0.760198 83.1399 2.10239 83.9662 2.95835 83.2396Z" fill="#A79F91"/>
<path d="M2.95835 95.4722C7.43862 91.77 11.0951 87.4063 14.5216 83.0361C15.2187 82.1924 13.5341 81.6567 12.837 82.5004C9.45207 86.6841 5.89591 91.0131 1.48657 94.6047C0.760198 95.3724 2.10239 96.1987 2.95835 95.4722Z" fill="#A79F91"/>
<path d="M2.95835 107.705C7.43862 104.002 11.0951 99.6387 14.5216 95.2685C15.2187 94.4248 13.5341 93.8891 12.837 94.7328C9.45207 98.9165 5.89591 103.245 1.48657 106.837C0.760198 107.605 2.10239 108.431 2.95835 107.705Z" fill="#A79F91"/>
<path d="M2.95835 119.937C7.43862 116.235 11.0951 111.871 14.5216 107.501C15.2187 106.657 13.5341 106.122 12.837 106.965C9.45207 111.149 5.89591 115.478 1.48657 119.07C0.760198 119.837 2.10239 120.664 2.95835 119.937Z" fill="#A79F91"/>
<path d="M2.95835 132.17C7.43862 128.467 11.0951 124.104 14.5216 119.733C15.2187 118.89 13.5341 118.354 12.837 119.198C9.45207 123.381 5.89591 127.71 1.48657 131.302C0.760198 132.07 2.10239 132.896 2.95835 132.17Z" fill="#A79F91"/>
<path d="M2.95835 144.402C7.43862 140.7 11.0951 136.336 14.5216 131.966C15.2187 131.122 13.5341 130.587 12.837 131.43C9.45207 135.614 5.89591 139.943 1.48657 143.535C0.760198 144.302 2.10239 145.129 2.95835 144.402Z" fill="#A79F91"/>
<path d="M2.95835 156.635C7.43862 152.932 11.0951 148.569 14.5216 144.198C15.2187 143.355 13.5341 142.819 12.837 143.663C9.45207 147.846 5.89591 152.175 1.48657 155.767C0.760198 156.535 2.10239 157.361 2.95835 156.635Z" fill="#A79F91"/>
<path d="M2.95835 168.867C7.43862 165.165 11.0951 160.801 14.5216 156.431C15.2187 155.587 13.5341 155.052 12.837 155.895C9.45207 160.079 5.89591 164.408 1.48657 168C0.760198 168.767 2.10239 169.594 2.95835 168.867Z" fill="#A79F91"/>
<path d="M2.95835 181.1C7.43862 177.397 11.0951 173.034 14.5216 168.663C15.2187 167.82 13.5341 167.284 12.837 168.128C9.45207 172.311 5.89591 176.64 1.48657 180.232C0.760198 181 2.10239 181.826 2.95835 181.1Z" fill="#A79F91"/>
<path d="M2.95835 193.332C7.43862 189.63 11.0951 185.266 14.5216 180.896C15.2187 180.052 13.5341 179.517 12.837 180.36C9.45207 184.544 5.89591 188.873 1.48657 192.465C0.760198 193.232 2.10239 194.059 2.95835 193.332Z" fill="#A79F91"/>
<path d="M2.95835 205.565C7.43862 201.862 11.0951 197.499 14.5216 193.128C15.2187 192.285 13.5341 191.749 12.837 192.593C9.45207 196.776 5.89591 201.105 1.48657 204.697C0.760198 205.465 2.10239 206.291 2.95835 205.565Z" fill="#A79F91"/>
<path d="M2.95835 217.797C7.43862 214.095 11.0951 209.731 14.5216 205.361C15.2187 204.517 13.5341 203.982 12.837 204.825C9.45207 209.009 5.89591 213.338 1.48657 216.929C0.760198 217.697 2.10239 218.524 2.95835 217.797Z" fill="#A79F91"/>
<path d="M2.95835 230.029C7.43862 226.327 11.0951 221.964 14.5216 217.593C15.2187 216.75 13.5341 216.214 12.837 217.058C9.45207 221.241 5.89591 225.57 1.48657 229.162C0.760198 229.93 2.10239 230.756 2.95835 230.029Z" fill="#A79F91"/>
<path d="M2.95835 242.262C7.43862 238.56 11.0951 234.196 14.5216 229.826C15.2187 228.982 13.5341 228.446 12.837 229.29C9.45207 233.474 5.89591 237.803 1.48657 241.394C0.760198 242.162 2.10239 242.989 2.95835 242.262Z" fill="#A79F91"/>
<path d="M2.95835 254.494C7.43862 250.792 11.0951 246.429 14.5216 242.058C15.2187 241.215 13.5341 240.679 12.837 241.523C9.45207 245.706 5.89591 250.035 1.48657 253.627C0.760198 254.395 2.10239 255.221 2.95835 254.494Z" fill="#A79F91"/>
<path d="M2.95835 266.727C7.43862 263.025 11.0951 258.661 14.5216 254.291C15.2187 253.447 13.5341 252.911 12.837 253.755C9.45207 257.939 5.89591 262.268 1.48657 265.859C0.760198 266.627 2.10239 267.453 2.95835 266.727Z" fill="#A79F91"/>
<path d="M2.95835 278.959C7.43862 275.257 11.0951 270.894 14.5216 266.523C15.2187 265.68 13.5341 265.144 12.837 265.988C9.45207 270.171 5.89591 274.5 1.48657 278.092C0.760198 278.86 2.10239 279.686 2.95835 278.959Z" fill="#A79F91"/>
<path d="M2.95835 291.192C7.43862 287.49 11.0951 283.126 14.5216 278.756C15.2187 277.912 13.5341 277.376 12.837 278.22C9.45207 282.404 5.89591 286.733 1.48657 290.324C0.760198 291.092 2.10239 291.918 2.95835 291.192Z" fill="#A79F91"/>
<path d="M2.95835 303.424C7.43862 299.722 11.0951 295.358 14.5216 290.988C15.2187 290.145 13.5341 289.609 12.837 290.453C9.45207 294.636 5.89591 298.965 1.48657 302.557C0.760198 303.325 2.10239 304.151 2.95835 303.424Z" fill="#A79F91"/>
<path d="M2.95835 315.657C7.43862 311.955 11.0951 307.591 14.5216 303.221C15.2187 302.377 13.5341 301.841 12.837 302.685C9.45207 306.869 5.89591 311.198 1.48657 314.789C0.760198 315.557 2.10239 316.383 2.95835 315.657Z" fill="#A79F91"/>
<path d="M2.95835 327.889C7.43862 324.187 11.0951 319.823 14.5216 315.453C15.2187 314.61 13.5341 314.074 12.837 314.918C9.45207 319.101 5.89591 323.43 1.48657 327.022C0.760198 327.79 2.10239 328.616 2.95835 327.889Z" fill="#A79F91"/>
<path d="M2.95835 340.122C7.43862 336.42 11.0951 332.056 14.5216 327.686C15.2187 326.842 13.5341 326.306 12.837 327.15C9.45207 331.334 5.89591 335.663 1.48657 339.254C0.760198 340.022 2.10239 340.848 2.95835 340.122Z" fill="#A79F91"/>
<path d="M2.95835 352.354C7.43862 348.652 11.0951 344.288 14.5216 339.918C15.2187 339.075 13.5341 338.539 12.837 339.383C9.45207 343.566 5.89591 347.895 1.48657 351.487C0.760198 352.255 2.10239 353.081 2.95835 352.354Z" fill="#A79F91"/>
<path d="M2.95835 364.587C7.43862 360.885 11.0951 356.521 14.5216 352.151C15.2187 351.307 13.5341 350.771 12.837 351.615C9.45207 355.799 5.89591 360.128 1.48657 363.719C0.760198 364.487 2.10239 365.313 2.95835 364.587Z" fill="#A79F91"/>
<path d="M4 358V40H0V358H4Z" fill="#A79F91"/>
<g clip-path="url(#clip1_1514_103639)">
<path d="M40.0001 394H14C7.37258 394 2 388.627 2 382V356" stroke="#A79F91" stroke-width="4"/>
<path d="M2.68784 369.681C7.16811 365.979 10.8245 361.615 14.2511 357.245C14.9482 356.401 13.2636 355.865 12.5665 356.709C9.18156 360.893 5.6254 365.222 1.21606 368.813C0.48969 369.581 1.83189 370.407 2.68784 369.681Z" fill="#A79F91"/>
<path d="M2.68784 382.681C7.16811 378.979 10.8245 374.615 14.2511 370.245C14.9482 369.401 13.2636 368.865 12.5665 369.709C9.18156 373.893 5.6254 378.222 1.21606 381.813C0.48969 382.581 1.83189 383.407 2.68784 382.681Z" fill="#A79F91"/>
<path d="M7.12916 391.546C8.12924 389.046 15.6292 382.046 19.6292 379.546C20.3263 378.702 16.3263 376.202 15.6292 377.046C14.6292 381.546 5.3452 390.359 5.3452 390.359L7.12916 391.546Z" fill="#A79F91"/>
<path d="M17.6878 394.681C22.1681 390.979 25.8245 386.615 29.2511 382.245C29.9482 381.401 28.2636 380.865 27.5665 381.709C24.1816 385.893 20.6254 390.222 16.2161 393.813C15.4897 394.581 16.8319 395.407 17.6878 394.681Z" fill="#A79F91"/>
<path d="M29.6878 394.681C34.1681 390.979 37.8245 386.615 41.2511 382.245C41.9482 381.401 40.2636 380.865 39.5665 381.709C36.1816 385.893 32.6254 390.222 28.2161 393.813C27.4897 394.581 28.8319 395.407 29.6878 394.681Z" fill="#A79F91"/>
</g>
<path d="M44.6878 395.681C49.1681 391.979 52.8245 387.615 56.2511 383.245C56.9482 382.401 55.2636 381.865 54.5665 382.709C51.1816 386.893 47.6254 391.222 43.2161 394.813C42.4897 395.581 43.8319 396.407 44.6878 395.681Z" fill="#A79F91"/>
<path d="M62.1468 395.681C66.6271 391.979 70.2835 387.615 73.7101 383.245C74.4071 382.401 72.7225 381.865 72.0255 382.709C68.6405 386.893 65.0844 391.222 60.675 394.813C59.9487 395.581 61.2909 396.407 62.1468 395.681Z" fill="#A79F91"/>
<path d="M79.6058 395.681C84.0861 391.979 87.7425 387.615 91.1691 383.245C91.8661 382.401 90.1815 381.865 89.4845 382.709C86.0995 386.893 82.5434 391.222 78.134 394.813C77.4077 395.581 78.7499 396.407 79.6058 395.681Z" fill="#A79F91"/>
<path d="M97.0648 395.681C101.545 391.979 105.202 387.615 108.628 383.245C109.325 382.401 107.641 381.865 106.943 382.709C103.559 386.893 100.002 391.222 95.593 394.813C94.8666 395.581 96.2088 396.407 97.0648 395.681Z" fill="#A79F91"/>
<path d="M114.524 395.681C119.004 391.979 122.66 387.615 126.087 383.245C126.784 382.401 125.1 381.865 124.402 382.709C121.017 386.893 117.461 391.222 113.052 394.813C112.326 395.581 113.668 396.407 114.524 395.681Z" fill="#A79F91"/>
<path d="M131.983 395.681C136.463 391.979 140.119 387.615 143.546 383.245C144.243 382.401 142.558 381.865 141.861 382.709C138.476 386.893 134.92 391.222 130.511 394.813C129.785 395.581 131.127 396.407 131.983 395.681Z" fill="#A79F91"/>
<path d="M149.442 395.681C153.922 391.979 157.578 387.615 161.005 383.245C161.702 382.401 160.017 381.865 159.32 382.709C155.935 386.893 152.379 391.222 147.97 394.813C147.244 395.581 148.586 396.407 149.442 395.681Z" fill="#A79F91"/>
<path d="M166.901 395.681C171.381 391.979 175.037 387.615 178.464 383.245C179.161 382.401 177.476 381.865 176.779 382.709C173.394 386.893 169.838 391.222 165.429 394.813C164.703 395.581 166.045 396.407 166.901 395.681Z" fill="#A79F91"/>
<path d="M184.36 395.681C188.84 391.979 192.496 387.615 195.923 383.245C196.62 382.401 194.935 381.865 194.238 382.709C190.853 386.893 187.297 391.222 182.888 394.813C182.162 395.581 183.504 396.407 184.36 395.681Z" fill="#A79F91"/>
<path d="M201.819 395.681C206.299 391.979 209.955 387.615 213.382 383.245C214.079 382.401 212.394 381.865 211.697 382.709C208.312 386.893 204.756 391.222 200.347 394.813C199.621 395.581 200.963 396.407 201.819 395.681Z" fill="#A79F91"/>
<path d="M219.278 395.681C223.758 391.979 227.414 387.615 230.841 383.245C231.538 382.401 229.853 381.865 229.156 382.709C225.771 386.893 222.215 391.222 217.806 394.813C217.08 395.581 218.422 396.407 219.278 395.681Z" fill="#A79F91"/>
<path d="M236.737 395.681C241.217 391.979 244.873 387.615 248.3 383.245C248.997 382.401 247.312 381.865 246.615 382.709C243.23 386.893 239.674 391.222 235.265 394.813C234.539 395.581 235.881 396.407 236.737 395.681Z" fill="#A79F91"/>
<path d="M254.196 395.681C258.676 391.979 262.332 387.615 265.759 383.245C266.456 382.401 264.771 381.865 264.074 382.709C260.689 386.893 257.133 391.222 252.724 394.813C251.998 395.581 253.34 396.407 254.196 395.681Z" fill="#A79F91"/>
<path d="M271.655 395.681C276.135 391.979 279.791 387.615 283.218 383.245C283.915 382.401 282.23 381.865 281.533 382.709C278.148 386.893 274.592 391.222 270.183 394.813C269.456 395.581 270.799 396.407 271.655 395.681Z" fill="#A79F91"/>
<path d="M289.114 395.681C293.594 391.979 297.25 387.615 300.677 383.245C301.374 382.401 299.689 381.865 298.992 382.709C295.607 386.893 292.051 391.222 287.642 394.813C286.915 395.581 288.258 396.407 289.114 395.681Z" fill="#A79F91"/>
<path d="M306.573 395.681C311.053 391.979 314.709 387.615 318.136 383.245C318.833 382.401 317.148 381.865 316.451 382.709C313.066 386.893 309.51 391.222 305.101 394.813C304.374 395.581 305.717 396.407 306.573 395.681Z" fill="#A79F91"/>
<path d="M324.032 395.681C328.512 391.979 332.168 387.615 335.595 383.245C336.292 382.401 334.607 381.865 333.91 382.709C330.525 386.893 326.969 391.222 322.56 394.813C321.833 395.581 323.176 396.407 324.032 395.681Z" fill="#A79F91"/>
<path d="M341.491 395.681C345.971 391.979 349.627 387.615 353.054 383.245C353.751 382.401 352.066 381.865 351.369 382.709C347.984 386.893 344.428 391.222 340.019 394.813C339.292 395.581 340.635 396.407 341.491 395.681Z" fill="#A79F91"/>
<path d="M358.95 395.681C363.43 391.979 367.086 387.615 370.513 383.245C371.21 382.401 369.525 381.865 368.828 382.709C365.443 386.893 361.887 391.222 357.478 394.813C356.751 395.581 358.094 396.407 358.95 395.681Z" fill="#A79F91"/>
<path d="M376.409 395.681C380.889 391.979 384.545 387.615 387.972 383.245C388.669 382.401 386.984 381.865 386.287 382.709C382.902 386.893 379.346 391.222 374.937 394.813C374.21 395.581 375.553 396.407 376.409 395.681Z" fill="#A79F91"/>
<path d="M393.868 395.681C398.348 391.979 402.004 387.615 405.431 383.245C406.128 382.401 404.443 381.865 403.746 382.709C400.361 386.893 396.805 391.222 392.396 394.813C391.669 395.581 393.012 396.407 393.868 395.681Z" fill="#A79F91"/>
<path d="M401 392H40V396H401V392Z" fill="#A79F91"/>
<g clip-path="url(#clip2_1514_103639)">
<path d="M401 394C414.31 394 427.619 386.394 434.398 381.838C437.39 379.827 439 376.408 439 372.803L439 356" stroke="#A79F91" stroke-width="4"/>
<path d="M407.688 394.681C412.168 390.979 415.825 386.615 419.251 382.245C419.948 381.401 418.264 380.865 417.567 381.709C414.182 385.893 410.625 390.222 406.216 393.813C405.49 394.581 406.832 395.407 407.688 394.681Z" fill="#A79F91"/>
</g>
<rect x="14" y="2" width="425" height="380" rx="10" stroke="#A79F91" stroke-width="4"/>
</svg>
