<svg preserveAspectRatio="none" viewBox="0 0 847 1324" fill="none" xmlns="http://www.w3.org/2000/svg">
<rect x="14" y="10" width="831" height="1292" rx="10" fill="#FFFEFB"/>

<g clip-path="url(#clip0_1514_104940)">
<path d="M2.00006 48C2.00006 48 1.96581 44.505 3.5 37.5C5.33576 29.118 9.99999 21.5 11.5 17.6667V17.6667C13.273 13.1356 17.2018 10 22.0674 10H38" stroke="#A79F91" stroke-width="4"/>
<path d="M4.97164 36.6917C9.45192 32.9895 11.1084 29.6258 14.5349 25.2556C15.232 24.4119 13.5474 23.8762 12.8503 24.7199C9.46536 28.9036 7.9092 32.2326 3.49986 35.8242C2.77349 36.5919 4.11569 37.4182 4.97164 36.6917Z" fill="#A79F91"/>
<path d="M2.68784 48.6809C7.16811 44.9787 10.8245 40.615 14.2511 36.2448C14.9482 35.4011 13.2636 34.8654 12.5665 35.7091C9.18156 39.8928 5.6254 44.2218 1.21606 47.8134C0.48969 48.5812 1.83189 49.4075 2.68784 48.6809Z" fill="#A79F91"/>
</g>
<path d="M2.95835 63.0564C7.43862 59.3542 11.0951 54.9905 14.5216 50.6203C15.2187 49.7766 13.5341 49.2409 12.837 50.0846C9.45207 54.2683 5.89591 58.5973 1.48657 62.1889C0.760198 62.9567 2.10239 63.783 2.95835 63.0564Z" fill="#A79F91"/>
<path d="M2.95835 75.2891C7.43862 71.5869 11.0951 67.2232 14.5216 62.853C15.2187 62.0093 13.5341 61.4736 12.837 62.3173C9.45207 66.501 5.89591 70.83 1.48657 74.4216C0.760198 75.1893 2.10239 76.0156 2.95835 75.2891Z" fill="#A79F91"/>
<path d="M2.95835 87.5215C7.43862 83.8193 11.0951 79.4556 14.5216 75.0854C15.2187 74.2417 13.5341 73.706 12.837 74.5497C9.45207 78.7334 5.89591 83.0624 1.48657 86.654C0.760198 87.4217 2.10239 88.2481 2.95835 87.5215Z" fill="#A79F91"/>
<path d="M2.95835 99.7539C7.43862 96.0517 11.0951 91.688 14.5216 87.3178C15.2187 86.4741 13.5341 85.9384 12.837 86.7821C9.45207 90.9658 5.89591 95.2948 1.48657 98.8864C0.760198 99.6542 2.10239 100.48 2.95835 99.7539Z" fill="#A79F91"/>
<path d="M2.95835 111.986C7.43862 108.284 11.0951 103.92 14.5216 99.5502C15.2187 98.7065 13.5341 98.1709 12.837 99.0145C9.45207 103.198 5.89591 107.527 1.48657 111.119C0.760198 111.887 2.10239 112.713 2.95835 111.986Z" fill="#A79F91"/>
<path d="M2.95835 124.219C7.43862 120.517 11.0951 116.153 14.5216 111.783C15.2187 110.939 13.5341 110.404 12.837 111.247C9.45207 115.431 5.89591 119.76 1.48657 123.351C0.760198 124.119 2.10239 124.946 2.95835 124.219Z" fill="#A79F91"/>
<path d="M2.95835 136.451C7.43862 132.749 11.0951 128.386 14.5216 124.015C15.2187 123.172 13.5341 122.636 12.837 123.48C9.45207 127.663 5.89591 131.992 1.48657 135.584C0.760198 136.352 2.10239 137.178 2.95835 136.451Z" fill="#A79F91"/>
<path d="M2.95835 148.684C7.43862 144.982 11.0951 140.618 14.5216 136.248C15.2187 135.404 13.5341 134.868 12.837 135.712C9.45207 139.896 5.89591 144.225 1.48657 147.816C0.760198 148.584 2.10239 149.41 2.95835 148.684Z" fill="#A79F91"/>
<path d="M2.95835 160.916C7.43862 157.214 11.0951 152.85 14.5216 148.48C15.2187 147.636 13.5341 147.101 12.837 147.944C9.45207 152.128 5.89591 156.457 1.48657 160.049C0.760198 160.817 2.10239 161.643 2.95835 160.916Z" fill="#A79F91"/>
<path d="M2.95835 173.149C7.43862 169.447 11.0951 165.083 14.5216 160.713C15.2187 159.869 13.5341 159.333 12.837 160.177C9.45207 164.361 5.89591 168.69 1.48657 172.281C0.760198 173.049 2.10239 173.875 2.95835 173.149Z" fill="#A79F91"/>
<path d="M2.95835 185.381C7.43862 181.679 11.0951 177.315 14.5216 172.945C15.2187 172.102 13.5341 171.566 12.837 172.41C9.45207 176.593 5.89591 180.922 1.48657 184.514C0.760198 185.282 2.10239 186.108 2.95835 185.381Z" fill="#A79F91"/>
<path d="M2.95835 197.614C7.43862 193.912 11.0951 189.548 14.5216 185.178C15.2187 184.334 13.5341 183.798 12.837 184.642C9.45207 188.826 5.89591 193.155 1.48657 196.746C0.760198 197.514 2.10239 198.34 2.95835 197.614Z" fill="#A79F91"/>
<path d="M2.95835 209.846C7.43862 206.144 11.0951 201.78 14.5216 197.41C15.2187 196.566 13.5341 196.031 12.837 196.874C9.45207 201.058 5.89591 205.387 1.48657 208.979C0.760198 209.746 2.10239 210.573 2.95835 209.846Z" fill="#A79F91"/>
<path d="M2.95835 222.079C7.43862 218.377 11.0951 214.013 14.5216 209.643C15.2187 208.799 13.5341 208.263 12.837 209.107C9.45207 213.291 5.89591 217.62 1.48657 221.211C0.760198 221.979 2.10239 222.805 2.95835 222.079Z" fill="#A79F91"/>
<path d="M2.95835 234.311C7.43862 230.609 11.0951 226.245 14.5216 221.875C15.2187 221.031 13.5341 220.496 12.837 221.339C9.45207 225.523 5.89591 229.852 1.48657 233.444C0.760198 234.212 2.10239 235.038 2.95835 234.311Z" fill="#A79F91"/>
<path d="M2.95835 246.544C7.43862 242.842 11.0951 238.478 14.5216 234.108C15.2187 233.264 13.5341 232.728 12.837 233.572C9.45207 237.756 5.89591 242.085 1.48657 245.676C0.760198 246.444 2.10239 247.27 2.95835 246.544Z" fill="#A79F91"/>
<path d="M2.95835 258.776C7.43862 255.074 11.0951 250.71 14.5216 246.34C15.2187 245.496 13.5341 244.961 12.837 245.804C9.45207 249.988 5.89591 254.317 1.48657 257.909C0.760198 258.676 2.10239 259.503 2.95835 258.776Z" fill="#A79F91"/>
<path d="M2.95835 271.009C7.43862 267.307 11.0951 262.943 14.5216 258.573C15.2187 257.729 13.5341 257.193 12.837 258.037C9.45207 262.221 5.89591 266.55 1.48657 270.141C0.760198 270.909 2.10239 271.735 2.95835 271.009Z" fill="#A79F91"/>
<path d="M2.95835 283.241C7.43862 279.539 11.0951 275.175 14.5216 270.805C15.2187 269.961 13.5341 269.426 12.837 270.269C9.45207 274.453 5.89591 278.782 1.48657 282.374C0.760198 283.141 2.10239 283.968 2.95835 283.241Z" fill="#A79F91"/>
<path d="M2.95835 295.474C7.43862 291.771 11.0951 287.408 14.5216 283.038C15.2187 282.194 13.5341 281.658 12.837 282.502C9.45207 286.686 5.89591 291.015 1.48657 294.606C0.760198 295.374 2.10239 296.2 2.95835 295.474Z" fill="#A79F91"/>
<path d="M2.95835 307.706C7.43862 304.004 11.0951 299.64 14.5216 295.27C15.2187 294.426 13.5341 293.891 12.837 294.734C9.45207 298.918 5.89591 303.247 1.48657 306.839C0.760198 307.606 2.10239 308.433 2.95835 307.706Z" fill="#A79F91"/>
<path d="M2.95835 319.939C7.43862 316.237 11.0951 311.873 14.5216 307.503C15.2187 306.659 13.5341 306.123 12.837 306.967C9.45207 311.151 5.89591 315.48 1.48657 319.071C0.760198 319.839 2.10239 320.665 2.95835 319.939Z" fill="#A79F91"/>
<path d="M2.95835 332.171C7.43862 328.469 11.0951 324.105 14.5216 319.735C15.2187 318.891 13.5341 318.356 12.837 319.199C9.45207 323.383 5.89591 327.712 1.48657 331.304C0.760198 332.071 2.10239 332.898 2.95835 332.171Z" fill="#A79F91"/>
<path d="M2.95835 344.404C7.43862 340.701 11.0951 336.338 14.5216 331.967C15.2187 331.124 13.5341 330.588 12.837 331.432C9.45207 335.615 5.89591 339.944 1.48657 343.536C0.760198 344.304 2.10239 345.13 2.95835 344.404Z" fill="#A79F91"/>
<path d="M2.95835 356.636C7.43862 352.934 11.0951 348.57 14.5216 344.2C15.2187 343.356 13.5341 342.821 12.837 343.664C9.45207 347.848 5.89591 352.177 1.48657 355.768C0.760198 356.536 2.10239 357.363 2.95835 356.636Z" fill="#A79F91"/>
<path d="M2.95835 368.869C7.43862 365.166 11.0951 360.803 14.5216 356.433C15.2187 355.589 13.5341 355.053 12.837 355.897C9.45207 360.081 5.89591 364.41 1.48657 368.001C0.760198 368.769 2.10239 369.595 2.95835 368.869Z" fill="#A79F91"/>
<path d="M2.95835 381.101C7.43862 377.399 11.0951 373.035 14.5216 368.665C15.2187 367.821 13.5341 367.286 12.837 368.129C9.45207 372.313 5.89591 376.642 1.48657 380.234C0.760198 381.001 2.10239 381.828 2.95835 381.101Z" fill="#A79F91"/>
<path d="M2.95835 393.334C7.43862 389.631 11.0951 385.268 14.5216 380.897C15.2187 380.054 13.5341 379.518 12.837 380.362C9.45207 384.545 5.89591 388.874 1.48657 392.466C0.760198 393.234 2.10239 394.06 2.95835 393.334Z" fill="#A79F91"/>
<path d="M2.95835 405.566C7.43862 401.864 11.0951 397.5 14.5216 393.13C15.2187 392.286 13.5341 391.751 12.837 392.594C9.45207 396.778 5.89591 401.107 1.48657 404.699C0.760198 405.466 2.10239 406.293 2.95835 405.566Z" fill="#A79F91"/>
<path d="M2.95835 417.799C7.43862 414.096 11.0951 409.733 14.5216 405.362C15.2187 404.519 13.5341 403.983 12.837 404.827C9.45207 409.01 5.89591 413.339 1.48657 416.931C0.760198 417.699 2.10239 418.525 2.95835 417.799Z" fill="#A79F91"/>
<path d="M2.95835 430.031C7.43862 426.329 11.0951 421.965 14.5216 417.595C15.2187 416.751 13.5341 416.216 12.837 417.059C9.45207 421.243 5.89591 425.572 1.48657 429.163C0.760198 429.931 2.10239 430.758 2.95835 430.031Z" fill="#A79F91"/>
<path d="M2.95835 442.263C7.43862 438.561 11.0951 434.198 14.5216 429.827C15.2187 428.984 13.5341 428.448 12.837 429.292C9.45207 433.475 5.89591 437.804 1.48657 441.396C0.760198 442.164 2.10239 442.99 2.95835 442.263Z" fill="#A79F91"/>
<path d="M2.95835 454.496C7.43862 450.794 11.0951 446.43 14.5216 442.06C15.2187 441.216 13.5341 440.68 12.837 441.524C9.45207 445.708 5.89591 450.037 1.48657 453.628C0.760198 454.396 2.10239 455.222 2.95835 454.496Z" fill="#A79F91"/>
<path d="M2.95835 466.728C7.43862 463.026 11.0951 458.662 14.5216 454.292C15.2187 453.448 13.5341 452.913 12.837 453.756C9.45207 457.94 5.89591 462.269 1.48657 465.861C0.760198 466.629 2.10239 467.455 2.95835 466.728Z" fill="#A79F91"/>
<path d="M2.95835 478.961C7.43862 475.258 11.0951 470.895 14.5216 466.525C15.2187 465.681 13.5341 465.145 12.837 465.989C9.45207 470.173 5.89591 474.502 1.48657 478.093C0.760198 478.861 2.10239 479.687 2.95835 478.961Z" fill="#A79F91"/>
<path d="M2.95835 491.194C7.43862 487.491 11.0951 483.128 14.5216 478.757C15.2187 477.914 13.5341 477.378 12.837 478.222C9.45207 482.405 5.89591 486.734 1.48657 490.326C0.760198 491.094 2.10239 491.92 2.95835 491.194Z" fill="#A79F91"/>
<path d="M2.95835 503.426C7.43862 499.724 11.0951 495.36 14.5216 490.99C15.2187 490.146 13.5341 489.611 12.837 490.454C9.45207 494.638 5.89591 498.967 1.48657 502.559C0.760198 503.326 2.10239 504.153 2.95835 503.426Z" fill="#A79F91"/>
<path d="M2.95835 515.658C7.43862 511.956 11.0951 507.593 14.5216 503.222C15.2187 502.379 13.5341 501.843 12.837 502.687C9.45207 506.87 5.89591 511.199 1.48657 514.791C0.760198 515.559 2.10239 516.385 2.95835 515.658Z" fill="#A79F91"/>
<path d="M2.95835 527.891C7.43862 524.189 11.0951 519.825 14.5216 515.455C15.2187 514.611 13.5341 514.075 12.837 514.919C9.45207 519.103 5.89591 523.432 1.48657 527.023C0.760198 527.791 2.10239 528.617 2.95835 527.891Z" fill="#A79F91"/>
<path d="M2.95835 540.123C7.43862 536.421 11.0951 532.057 14.5216 527.687C15.2187 526.844 13.5341 526.308 12.837 527.152C9.45207 531.335 5.89591 535.664 1.48657 539.256C0.760198 540.024 2.10239 540.85 2.95835 540.123Z" fill="#A79F91"/>
<path d="M2.95835 552.356C7.43862 548.654 11.0951 544.29 14.5216 539.92C15.2187 539.076 13.5341 538.54 12.837 539.384C9.45207 543.568 5.89591 547.897 1.48657 551.488C0.760198 552.256 2.10239 553.082 2.95835 552.356Z" fill="#A79F91"/>
<path d="M2.95835 564.588C7.43862 560.886 11.0951 556.522 14.5216 552.152C15.2187 551.308 13.5341 550.773 12.837 551.616C9.45207 555.8 5.89591 560.129 1.48657 563.721C0.760198 564.488 2.10239 565.315 2.95835 564.588Z" fill="#A79F91"/>
<path d="M2.95835 576.821C7.43862 573.118 11.0951 568.755 14.5216 564.384C15.2187 563.541 13.5341 563.005 12.837 563.849C9.45207 568.032 5.89591 572.361 1.48657 575.953C0.760198 576.721 2.10239 577.547 2.95835 576.821Z" fill="#A79F91"/>
<path d="M2.95835 589.053C7.43862 585.351 11.0951 580.988 14.5216 576.617C15.2187 575.774 13.5341 575.238 12.837 576.082C9.45207 580.265 5.89591 584.594 1.48657 588.186C0.760198 588.954 2.10239 589.78 2.95835 589.053Z" fill="#A79F91"/>
<path d="M2.95835 601.286C7.43862 597.584 11.0951 593.22 14.5216 588.85C15.2187 588.006 13.5341 587.47 12.837 588.314C9.45207 592.498 5.89591 596.827 1.48657 600.418C0.760198 601.186 2.10239 602.012 2.95835 601.286Z" fill="#A79F91"/>
<path d="M2.95835 613.518C7.43862 609.816 11.0951 605.452 14.5216 601.082C15.2187 600.239 13.5341 599.703 12.837 600.547C9.45207 604.73 5.89591 609.059 1.48657 612.651C0.760198 613.419 2.10239 614.245 2.95835 613.518Z" fill="#A79F91"/>
<path d="M2.95835 625.751C7.43862 622.049 11.0951 617.685 14.5216 613.315C15.2187 612.471 13.5341 611.935 12.837 612.779C9.45207 616.963 5.89591 621.292 1.48657 624.883C0.760198 625.651 2.10239 626.477 2.95835 625.751Z" fill="#A79F91"/>
<path d="M2.95835 637.983C7.43862 634.281 11.0951 629.917 14.5216 625.547C15.2187 624.703 13.5341 624.168 12.837 625.011C9.45207 629.195 5.89591 633.524 1.48657 637.116C0.760198 637.883 2.10239 638.71 2.95835 637.983Z" fill="#A79F91"/>
<path d="M2.95835 650.216C7.43862 646.513 11.0951 642.15 14.5216 637.779C15.2187 636.936 13.5341 636.4 12.837 637.244C9.45207 641.427 5.89591 645.756 1.48657 649.348C0.760198 650.116 2.10239 650.942 2.95835 650.216Z" fill="#A79F91"/>
<path d="M2.95835 662.448C7.43862 658.746 11.0951 654.382 14.5216 650.012C15.2187 649.168 13.5341 648.633 12.837 649.476C9.45207 653.66 5.89591 657.989 1.48657 661.58C0.760198 662.348 2.10239 663.175 2.95835 662.448Z" fill="#A79F91"/>
<path d="M2.95835 674.681C7.43862 670.979 11.0951 666.615 14.5216 662.245C15.2187 661.401 13.5341 660.865 12.837 661.709C9.45207 665.893 5.89591 670.222 1.48657 673.813C0.760198 674.581 2.10239 675.407 2.95835 674.681Z" fill="#A79F91"/>
<path d="M2.95835 686.913C7.43862 683.211 11.0951 678.847 14.5216 674.477C15.2187 673.634 13.5341 673.098 12.837 673.942C9.45207 678.125 5.89591 682.454 1.48657 686.046C0.760198 686.814 2.10239 687.64 2.95835 686.913Z" fill="#A79F91"/>
<path d="M2.95835 699.146C7.43862 695.444 11.0951 691.08 14.5216 686.71C15.2187 685.866 13.5341 685.33 12.837 686.174C9.45207 690.358 5.89591 694.687 1.48657 698.278C0.760198 699.046 2.10239 699.872 2.95835 699.146Z" fill="#A79F91"/>
<path d="M2.95835 711.378C7.43862 707.676 11.0951 703.312 14.5216 698.942C15.2187 698.098 13.5341 697.563 12.837 698.406C9.45207 702.59 5.89591 706.919 1.48657 710.511C0.760198 711.278 2.10239 712.105 2.95835 711.378Z" fill="#A79F91"/>
<path d="M2.95835 723.611C7.43862 719.908 11.0951 715.545 14.5216 711.174C15.2187 710.331 13.5341 709.795 12.837 710.639C9.45207 714.822 5.89591 719.151 1.48657 722.743C0.760198 723.511 2.10239 724.337 2.95835 723.611Z" fill="#A79F91"/>
<path d="M2.95835 735.843C7.43862 732.141 11.0951 727.777 14.5216 723.407C15.2187 722.563 13.5341 722.028 12.837 722.871C9.45207 727.055 5.89591 731.384 1.48657 734.976C0.760198 735.743 2.10239 736.57 2.95835 735.843Z" fill="#A79F91"/>
<path d="M2.95835 748.075C7.43862 744.373 11.0951 740.01 14.5216 735.639C15.2187 734.796 13.5341 734.26 12.837 735.104C9.45207 739.287 5.89591 743.616 1.48657 747.208C0.760198 747.976 2.10239 748.802 2.95835 748.075Z" fill="#A79F91"/>
<path d="M2.95835 760.308C7.43862 756.606 11.0951 752.242 14.5216 747.872C15.2187 747.028 13.5341 746.492 12.837 747.336C9.45207 751.52 5.89591 755.849 1.48657 759.44C0.760198 760.208 2.10239 761.034 2.95835 760.308Z" fill="#A79F91"/>
<path d="M2.95835 772.54C7.43862 768.838 11.0951 764.474 14.5216 760.104C15.2187 759.261 13.5341 758.725 12.837 759.568C9.45207 763.752 5.89591 768.081 1.48657 771.673C0.760198 772.441 2.10239 773.267 2.95835 772.54Z" fill="#A79F91"/>
<path d="M2.95835 784.773C7.43862 781.071 11.0951 776.707 14.5216 772.337C15.2187 771.493 13.5341 770.958 12.837 771.801C9.45207 775.985 5.89591 780.314 1.48657 783.906C0.760198 784.673 2.10239 785.5 2.95835 784.773Z" fill="#A79F91"/>
<path d="M2.95835 797.006C7.43862 793.303 11.0951 788.94 14.5216 784.57C15.2187 783.726 13.5341 783.19 12.837 784.034C9.45207 788.218 5.89591 792.547 1.48657 796.138C0.760198 796.906 2.10239 797.732 2.95835 797.006Z" fill="#A79F91"/>
<path d="M2.95835 809.238C7.43862 805.536 11.0951 801.172 14.5216 796.802C15.2187 795.958 13.5341 795.423 12.837 796.266C9.45207 800.45 5.89591 804.779 1.48657 808.371C0.760198 809.138 2.10239 809.965 2.95835 809.238Z" fill="#A79F91"/>
<path d="M2.95835 821.47C7.43862 817.768 11.0951 813.405 14.5216 809.034C15.2187 808.191 13.5341 807.655 12.837 808.499C9.45207 812.682 5.89591 817.011 1.48657 820.603C0.760198 821.371 2.10239 822.197 2.95835 821.47Z" fill="#A79F91"/>
<path d="M2.95835 833.703C7.43862 830.001 11.0951 825.637 14.5216 821.267C15.2187 820.423 13.5341 819.887 12.837 820.731C9.45207 824.915 5.89591 829.244 1.48657 832.835C0.760198 833.603 2.10239 834.429 2.95835 833.703Z" fill="#A79F91"/>
<path d="M2.95835 845.935C7.43862 842.233 11.0951 837.869 14.5216 833.499C15.2187 832.656 13.5341 832.12 12.837 832.964C9.45207 837.147 5.89591 841.476 1.48657 845.068C0.760198 845.836 2.10239 846.662 2.95835 845.935Z" fill="#A79F91"/>
<path d="M2.95835 858.168C7.43862 854.466 11.0951 850.102 14.5216 845.732C15.2187 844.888 13.5341 844.352 12.837 845.196C9.45207 849.38 5.89591 853.709 1.48657 857.3C0.760198 858.068 2.10239 858.894 2.95835 858.168Z" fill="#A79F91"/>
<path d="M2.95835 870.401C7.43862 866.698 11.0951 862.335 14.5216 857.965C15.2187 857.121 13.5341 856.585 12.837 857.429C9.45207 861.613 5.89591 865.942 1.48657 869.533C0.760198 870.301 2.10239 871.127 2.95835 870.401Z" fill="#A79F91"/>
<path d="M2.95835 882.633C7.43862 878.931 11.0951 874.567 14.5216 870.197C15.2187 869.353 13.5341 868.818 12.837 869.661C9.45207 873.845 5.89591 878.174 1.48657 881.766C0.760198 882.533 2.10239 883.36 2.95835 882.633Z" fill="#A79F91"/>
<path d="M2.95835 894.865C7.43862 891.163 11.0951 886.8 14.5216 882.429C15.2187 881.586 13.5341 881.05 12.837 881.894C9.45207 886.077 5.89591 890.406 1.48657 893.998C0.760198 894.766 2.10239 895.592 2.95835 894.865Z" fill="#A79F91"/>
<path d="M2.95835 907.098C7.43862 903.396 11.0951 899.032 14.5216 894.662C15.2187 893.818 13.5341 893.282 12.837 894.126C9.45207 898.31 5.89591 902.639 1.48657 906.23C0.760198 906.998 2.10239 907.824 2.95835 907.098Z" fill="#A79F91"/>
<path d="M2.95835 919.33C7.43862 915.628 11.0951 911.264 14.5216 906.894C15.2187 906.051 13.5341 905.515 12.837 906.359C9.45207 910.542 5.89591 914.871 1.48657 918.463C0.760198 919.231 2.10239 920.057 2.95835 919.33Z" fill="#A79F91"/>
<path d="M2.95835 931.563C7.43862 927.861 11.0951 923.497 14.5216 919.127C15.2187 918.283 13.5341 917.747 12.837 918.591C9.45207 922.775 5.89591 927.104 1.48657 930.695C0.760198 931.463 2.10239 932.289 2.95835 931.563Z" fill="#A79F91"/>
<path d="M2.95835 943.795C7.43862 940.093 11.0951 935.729 14.5216 931.359C15.2187 930.515 13.5341 929.98 12.837 930.823C9.45207 935.007 5.89591 939.336 1.48657 942.928C0.760198 943.695 2.10239 944.522 2.95835 943.795Z" fill="#A79F91"/>
<path d="M2.95835 956.028C7.43862 952.325 11.0951 947.962 14.5216 943.591C15.2187 942.748 13.5341 942.212 12.837 943.056C9.45207 947.239 5.89591 951.568 1.48657 955.16C0.760198 955.928 2.10239 956.754 2.95835 956.028Z" fill="#A79F91"/>
<path d="M2.95835 968.26C7.43862 964.558 11.0951 960.194 14.5216 955.824C15.2187 954.98 13.5341 954.445 12.837 955.288C9.45207 959.472 5.89591 963.801 1.48657 967.392C0.760198 968.16 2.10239 968.987 2.95835 968.26Z" fill="#A79F91"/>
<path d="M2.95835 980.493C7.43862 976.791 11.0951 972.427 14.5216 968.057C15.2187 967.213 13.5341 966.677 12.837 967.521C9.45207 971.705 5.89591 976.034 1.48657 979.625C0.760198 980.393 2.10239 981.219 2.95835 980.493Z" fill="#A79F91"/>
<path d="M2.95835 992.725C7.43862 989.023 11.0951 984.659 14.5216 980.289C15.2187 979.446 13.5341 978.91 12.837 979.754C9.45207 983.937 5.89591 988.266 1.48657 991.858C0.760198 992.626 2.10239 993.452 2.95835 992.725Z" fill="#A79F91"/>
<path d="M2.95835 1004.96C7.43862 1001.26 11.0951 996.892 14.5216 992.522C15.2187 991.678 13.5341 991.142 12.837 991.986C9.45207 996.17 5.89591 1000.5 1.48657 1004.09C0.760198 1004.86 2.10239 1005.68 2.95835 1004.96Z" fill="#A79F91"/>
<path d="M2.95835 1017.19C7.43862 1013.49 11.0951 1009.12 14.5216 1004.75C15.2187 1003.91 13.5341 1003.37 12.837 1004.22C9.45207 1008.4 5.89591 1012.73 1.48657 1016.32C0.760198 1017.09 2.10239 1017.92 2.95835 1017.19Z" fill="#A79F91"/>
<path d="M2.95835 1029.42C7.43862 1025.72 11.0951 1021.36 14.5216 1016.99C15.2187 1016.14 13.5341 1015.61 12.837 1016.45C9.45207 1020.63 5.89591 1024.96 1.48657 1028.56C0.760198 1029.32 2.10239 1030.15 2.95835 1029.42Z" fill="#A79F91"/>
<path d="M2.95835 1041.66C7.43862 1037.95 11.0951 1033.59 14.5216 1029.22C15.2187 1028.38 13.5341 1027.84 12.837 1028.68C9.45207 1032.87 5.89591 1037.2 1.48657 1040.79C0.760198 1041.56 2.10239 1042.38 2.95835 1041.66Z" fill="#A79F91"/>
<path d="M2.95835 1053.89C7.43862 1050.19 11.0951 1045.82 14.5216 1041.45C15.2187 1040.61 13.5341 1040.07 12.837 1040.92C9.45207 1045.1 5.89591 1049.43 1.48657 1053.02C0.760198 1053.79 2.10239 1054.61 2.95835 1053.89Z" fill="#A79F91"/>
<path d="M2.95835 1066.12C7.43862 1062.42 11.0951 1058.05 14.5216 1053.68C15.2187 1052.84 13.5341 1052.3 12.837 1053.15C9.45207 1057.33 5.89591 1061.66 1.48657 1065.25C0.760198 1066.02 2.10239 1066.85 2.95835 1066.12Z" fill="#A79F91"/>
<path d="M2.95835 1078.35C7.43862 1074.65 11.0951 1070.29 14.5216 1065.92C15.2187 1065.07 13.5341 1064.54 12.837 1065.38C9.45207 1069.56 5.89591 1073.89 1.48657 1077.49C0.760198 1078.25 2.10239 1079.08 2.95835 1078.35Z" fill="#A79F91"/>
<path d="M2.95835 1090.59C7.43862 1086.88 11.0951 1082.52 14.5216 1078.15C15.2187 1077.31 13.5341 1076.77 12.837 1077.61C9.45207 1081.8 5.89591 1086.13 1.48657 1089.72C0.760198 1090.49 2.10239 1091.31 2.95835 1090.59Z" fill="#A79F91"/>
<path d="M2.95835 1102.82C7.43862 1099.12 11.0951 1094.75 14.5216 1090.38C15.2187 1089.54 13.5341 1089 12.837 1089.85C9.45207 1094.03 5.89591 1098.36 1.48657 1101.95C0.760198 1102.72 2.10239 1103.54 2.95835 1102.82Z" fill="#A79F91"/>
<path d="M2.95835 1115.05C7.43862 1111.35 11.0951 1106.98 14.5216 1102.61C15.2187 1101.77 13.5341 1101.23 12.837 1102.08C9.45207 1106.26 5.89591 1110.59 1.48657 1114.18C0.760198 1114.95 2.10239 1115.78 2.95835 1115.05Z" fill="#A79F91"/>
<path d="M2.95835 1127.28C7.43862 1123.58 11.0951 1119.22 14.5216 1114.85C15.2187 1114 13.5341 1113.47 12.837 1114.31C9.45207 1118.49 5.89591 1122.82 1.48657 1126.41C0.760198 1127.18 2.10239 1128.01 2.95835 1127.28Z" fill="#A79F91"/>
<path d="M2.95835 1139.52C7.43862 1135.81 11.0951 1131.45 14.5216 1127.08C15.2187 1126.24 13.5341 1125.7 12.837 1126.54C9.45207 1130.73 5.89591 1135.06 1.48657 1138.65C0.760198 1139.42 2.10239 1140.24 2.95835 1139.52Z" fill="#A79F91"/>
<path d="M2.95835 1151.75C7.43862 1148.05 11.0951 1143.68 14.5216 1139.31C15.2187 1138.47 13.5341 1137.93 12.837 1138.78C9.45207 1142.96 5.89591 1147.29 1.48657 1150.88C0.760198 1151.65 2.10239 1152.47 2.95835 1151.75Z" fill="#A79F91"/>
<path d="M2.95835 1163.98C7.43862 1160.28 11.0951 1155.91 14.5216 1151.54C15.2187 1150.7 13.5341 1150.16 12.837 1151.01C9.45207 1155.19 5.89591 1159.52 1.48657 1163.11C0.760198 1163.88 2.10239 1164.71 2.95835 1163.98Z" fill="#A79F91"/>
<path d="M2.95835 1176.21C7.43862 1172.51 11.0951 1168.15 14.5216 1163.78C15.2187 1162.93 13.5341 1162.4 12.837 1163.24C9.45207 1167.43 5.89591 1171.75 1.48657 1175.35C0.760198 1176.11 2.10239 1176.94 2.95835 1176.21Z" fill="#A79F91"/>
<path d="M2.95835 1188.45C7.43862 1184.74 11.0951 1180.38 14.5216 1176.01C15.2187 1175.17 13.5341 1174.63 12.837 1175.47C9.45207 1179.66 5.89591 1183.99 1.48657 1187.58C0.760198 1188.35 2.10239 1189.17 2.95835 1188.45Z" fill="#A79F91"/>
<path d="M2.95835 1200.68C7.43862 1196.98 11.0951 1192.61 14.5216 1188.24C15.2187 1187.4 13.5341 1186.86 12.837 1187.71C9.45207 1191.89 5.89591 1196.22 1.48657 1199.81C0.760198 1200.58 2.10239 1201.4 2.95835 1200.68Z" fill="#A79F91"/>
<path d="M2.95835 1212.91C7.43862 1209.21 11.0951 1204.84 14.5216 1200.47C15.2187 1199.63 13.5341 1199.09 12.837 1199.94C9.45207 1204.12 5.89591 1208.45 1.48657 1212.04C0.760198 1212.81 2.10239 1213.64 2.95835 1212.91Z" fill="#A79F91"/>
<path d="M2.95835 1225.14C7.43862 1221.44 11.0951 1217.08 14.5216 1212.71C15.2187 1211.86 13.5341 1211.33 12.837 1212.17C9.45207 1216.35 5.89591 1220.68 1.48657 1224.28C0.760198 1225.04 2.10239 1225.87 2.95835 1225.14Z" fill="#A79F91"/>
<path d="M2.95835 1237.38C7.43862 1233.67 11.0951 1229.31 14.5216 1224.94C15.2187 1224.1 13.5341 1223.56 12.837 1224.4C9.45207 1228.59 5.89591 1232.92 1.48657 1236.51C0.760198 1237.28 2.10239 1238.1 2.95835 1237.38Z" fill="#A79F91"/>
<path d="M2.95835 1249.61C7.43862 1245.91 11.0951 1241.54 14.5216 1237.17C15.2187 1236.33 13.5341 1235.79 12.837 1236.64C9.45207 1240.82 5.89591 1245.15 1.48657 1248.74C0.760198 1249.51 2.10239 1250.33 2.95835 1249.61Z" fill="#A79F91"/>
<path d="M2.95835 1261.84C7.43862 1258.14 11.0951 1253.77 14.5216 1249.4C15.2187 1248.56 13.5341 1248.03 12.837 1248.87C9.45207 1253.05 5.89591 1257.38 1.48657 1260.97C0.760198 1261.74 2.10239 1262.57 2.95835 1261.84Z" fill="#A79F91"/>
<path d="M2.95835 1274.07C7.43862 1270.37 11.0951 1266.01 14.5216 1261.64C15.2187 1260.79 13.5341 1260.26 12.837 1261.1C9.45207 1265.29 5.89591 1269.61 1.48657 1273.21C0.760198 1273.97 2.10239 1274.8 2.95835 1274.07Z" fill="#A79F91"/>
<path d="M4 1276V48H0V1276H4Z" fill="#A79F91"/>
<g clip-path="url(#clip1_1514_104940)">
<path d="M40.0001 1314H14C7.37258 1314 2 1308.63 2 1302V1276" stroke="#A79F91" stroke-width="4"/>
<path d="M2.68784 1289.68C7.16811 1285.98 10.8245 1281.62 14.2511 1277.24C14.9482 1276.4 13.2636 1275.87 12.5665 1276.71C9.18156 1280.89 5.6254 1285.22 1.21606 1288.81C0.48969 1289.58 1.83189 1290.41 2.68784 1289.68Z" fill="#A79F91"/>
<path d="M2.68784 1302.68C7.16811 1298.98 10.8245 1294.62 14.2511 1290.24C14.9482 1289.4 13.2636 1288.87 12.5665 1289.71C9.18156 1293.89 5.6254 1298.22 1.21606 1301.81C0.48969 1302.58 1.83189 1303.41 2.68784 1302.68Z" fill="#A79F91"/>
<path d="M7.12916 1311.55C8.12924 1309.05 15.6292 1302.05 19.6292 1299.55C20.3263 1298.7 16.3263 1296.2 15.6292 1297.05C14.6292 1301.55 5.3452 1310.36 5.3452 1310.36L7.12916 1311.55Z" fill="#A79F91"/>
<path d="M17.6878 1314.68C22.1681 1310.98 25.8245 1306.62 29.2511 1302.24C29.9482 1301.4 28.2636 1300.87 27.5665 1301.71C24.1816 1305.89 20.6254 1310.22 16.2161 1313.81C15.4897 1314.58 16.8319 1315.41 17.6878 1314.68Z" fill="#A79F91"/>
<path d="M29.6878 1314.68C34.1681 1310.98 37.8245 1306.62 41.2511 1302.24C41.9482 1301.4 40.2636 1300.87 39.5665 1301.71C36.1816 1305.89 32.6254 1310.22 28.2161 1313.81C27.4897 1314.58 28.8319 1315.41 29.6878 1314.68Z" fill="#A79F91"/>
</g>
<path d="M44.6878 1315.68C49.1681 1311.98 52.8245 1307.62 56.2511 1303.24C56.9482 1302.4 55.2636 1301.87 54.5665 1302.71C51.1816 1306.89 47.6254 1311.22 43.2161 1314.81C42.4897 1315.58 43.8319 1316.41 44.6878 1315.68Z" fill="#A79F91"/>
<path d="M62.1468 1315.68C66.6271 1311.98 70.2835 1307.62 73.7101 1303.24C74.4071 1302.4 72.7225 1301.87 72.0255 1302.71C68.6405 1306.89 65.0844 1311.22 60.675 1314.81C59.9487 1315.58 61.2909 1316.41 62.1468 1315.68Z" fill="#A79F91"/>
<path d="M79.6058 1315.68C84.0861 1311.98 87.7425 1307.62 91.1691 1303.24C91.8661 1302.4 90.1815 1301.87 89.4845 1302.71C86.0995 1306.89 82.5434 1311.22 78.134 1314.81C77.4077 1315.58 78.7499 1316.41 79.6058 1315.68Z" fill="#A79F91"/>
<path d="M97.0648 1315.68C101.545 1311.98 105.202 1307.62 108.628 1303.24C109.325 1302.4 107.641 1301.87 106.943 1302.71C103.559 1306.89 100.002 1311.22 95.593 1314.81C94.8666 1315.58 96.2088 1316.41 97.0648 1315.68Z" fill="#A79F91"/>
<path d="M114.524 1315.68C119.004 1311.98 122.66 1307.62 126.087 1303.24C126.784 1302.4 125.1 1301.87 124.402 1302.71C121.017 1306.89 117.461 1311.22 113.052 1314.81C112.326 1315.58 113.668 1316.41 114.524 1315.68Z" fill="#A79F91"/>
<path d="M131.983 1315.68C136.463 1311.98 140.119 1307.62 143.546 1303.24C144.243 1302.4 142.558 1301.87 141.861 1302.71C138.476 1306.89 134.92 1311.22 130.511 1314.81C129.785 1315.58 131.127 1316.41 131.983 1315.68Z" fill="#A79F91"/>
<path d="M149.442 1315.68C153.922 1311.98 157.578 1307.62 161.005 1303.24C161.702 1302.4 160.017 1301.87 159.32 1302.71C155.935 1306.89 152.379 1311.22 147.97 1314.81C147.244 1315.58 148.586 1316.41 149.442 1315.68Z" fill="#A79F91"/>
<path d="M166.901 1315.68C171.381 1311.98 175.037 1307.62 178.464 1303.24C179.161 1302.4 177.476 1301.87 176.779 1302.71C173.394 1306.89 169.838 1311.22 165.429 1314.81C164.703 1315.58 166.045 1316.41 166.901 1315.68Z" fill="#A79F91"/>
<path d="M184.36 1315.68C188.84 1311.98 192.496 1307.62 195.923 1303.24C196.62 1302.4 194.935 1301.87 194.238 1302.71C190.853 1306.89 187.297 1311.22 182.888 1314.81C182.162 1315.58 183.504 1316.41 184.36 1315.68Z" fill="#A79F91"/>
<path d="M201.819 1315.68C206.299 1311.98 209.955 1307.62 213.382 1303.24C214.079 1302.4 212.394 1301.87 211.697 1302.71C208.312 1306.89 204.756 1311.22 200.347 1314.81C199.621 1315.58 200.963 1316.41 201.819 1315.68Z" fill="#A79F91"/>
<path d="M219.278 1315.68C223.758 1311.98 227.414 1307.62 230.841 1303.24C231.538 1302.4 229.853 1301.87 229.156 1302.71C225.771 1306.89 222.215 1311.22 217.806 1314.81C217.08 1315.58 218.422 1316.41 219.278 1315.68Z" fill="#A79F91"/>
<path d="M236.737 1315.68C241.217 1311.98 244.873 1307.62 248.3 1303.24C248.997 1302.4 247.312 1301.87 246.615 1302.71C243.23 1306.89 239.674 1311.22 235.265 1314.81C234.539 1315.58 235.881 1316.41 236.737 1315.68Z" fill="#A79F91"/>
<path d="M254.196 1315.68C258.676 1311.98 262.332 1307.62 265.759 1303.24C266.456 1302.4 264.771 1301.87 264.074 1302.71C260.689 1306.89 257.133 1311.22 252.724 1314.81C251.998 1315.58 253.34 1316.41 254.196 1315.68Z" fill="#A79F91"/>
<path d="M271.655 1315.68C276.135 1311.98 279.791 1307.62 283.218 1303.24C283.915 1302.4 282.23 1301.87 281.533 1302.71C278.148 1306.89 274.592 1311.22 270.183 1314.81C269.456 1315.58 270.799 1316.41 271.655 1315.68Z" fill="#A79F91"/>
<path d="M289.114 1315.68C293.594 1311.98 297.25 1307.62 300.677 1303.24C301.374 1302.4 299.689 1301.87 298.992 1302.71C295.607 1306.89 292.051 1311.22 287.642 1314.81C286.915 1315.58 288.258 1316.41 289.114 1315.68Z" fill="#A79F91"/>
<path d="M306.573 1315.68C311.053 1311.98 314.709 1307.62 318.136 1303.24C318.833 1302.4 317.148 1301.87 316.451 1302.71C313.066 1306.89 309.51 1311.22 305.101 1314.81C304.374 1315.58 305.717 1316.41 306.573 1315.68Z" fill="#A79F91"/>
<path d="M324.032 1315.68C328.512 1311.98 332.168 1307.62 335.595 1303.24C336.292 1302.4 334.607 1301.87 333.91 1302.71C330.525 1306.89 326.969 1311.22 322.56 1314.81C321.833 1315.58 323.176 1316.41 324.032 1315.68Z" fill="#A79F91"/>
<path d="M341.491 1315.68C345.971 1311.98 349.627 1307.62 353.054 1303.24C353.751 1302.4 352.066 1301.87 351.369 1302.71C347.984 1306.89 344.428 1311.22 340.019 1314.81C339.292 1315.58 340.635 1316.41 341.491 1315.68Z" fill="#A79F91"/>
<path d="M358.95 1315.68C363.43 1311.98 367.086 1307.62 370.513 1303.24C371.21 1302.4 369.525 1301.87 368.828 1302.71C365.443 1306.89 361.887 1311.22 357.478 1314.81C356.751 1315.58 358.094 1316.41 358.95 1315.68Z" fill="#A79F91"/>
<path d="M376.409 1315.68C380.889 1311.98 384.545 1307.62 387.972 1303.24C388.669 1302.4 386.984 1301.87 386.287 1302.71C382.902 1306.89 379.346 1311.22 374.937 1314.81C374.21 1315.58 375.553 1316.41 376.409 1315.68Z" fill="#A79F91"/>
<path d="M393.868 1315.68C398.348 1311.98 402.004 1307.62 405.431 1303.24C406.128 1302.4 404.443 1301.87 403.746 1302.71C400.361 1306.89 396.805 1311.22 392.396 1314.81C391.669 1315.58 393.012 1316.41 393.868 1315.68Z" fill="#A79F91"/>
<path d="M411.327 1315.68C415.807 1311.98 419.463 1307.62 422.89 1303.24C423.587 1302.4 421.902 1301.87 421.205 1302.71C417.82 1306.89 414.264 1311.22 409.855 1314.81C409.128 1315.58 410.471 1316.41 411.327 1315.68Z" fill="#A79F91"/>
<path d="M428.785 1315.68C433.266 1311.98 436.922 1307.62 440.349 1303.24C441.046 1302.4 439.361 1301.87 438.664 1302.71C435.279 1306.89 431.723 1311.22 427.314 1314.81C426.587 1315.58 427.93 1316.41 428.785 1315.68Z" fill="#A79F91"/>
<path d="M446.244 1315.68C450.725 1311.98 454.381 1307.62 457.808 1303.24C458.505 1302.4 456.82 1301.87 456.123 1302.71C452.738 1306.89 449.182 1311.22 444.773 1314.81C444.046 1315.58 445.389 1316.41 446.244 1315.68Z" fill="#A79F91"/>
<path d="M463.703 1315.68C468.184 1311.98 471.84 1307.62 475.267 1303.24C475.964 1302.4 474.279 1301.87 473.582 1302.71C470.197 1306.89 466.641 1311.22 462.232 1314.81C461.505 1315.58 462.848 1316.41 463.703 1315.68Z" fill="#A79F91"/>
<path d="M481.162 1315.68C485.643 1311.98 489.299 1307.62 492.726 1303.24C493.423 1302.4 491.738 1301.87 491.041 1302.71C487.656 1306.89 484.1 1311.22 479.691 1314.81C478.964 1315.58 480.306 1316.41 481.162 1315.68Z" fill="#A79F91"/>
<path d="M498.621 1315.68C503.102 1311.98 506.758 1307.62 510.185 1303.24C510.882 1302.4 509.197 1301.87 508.5 1302.71C505.115 1306.89 501.559 1311.22 497.15 1314.81C496.423 1315.58 497.765 1316.41 498.621 1315.68Z" fill="#A79F91"/>
<path d="M516.08 1315.68C520.561 1311.98 524.217 1307.62 527.644 1303.24C528.341 1302.4 526.656 1301.87 525.959 1302.71C522.574 1306.89 519.018 1311.22 514.609 1314.81C513.882 1315.58 515.224 1316.41 516.08 1315.68Z" fill="#A79F91"/>
<path d="M533.539 1315.68C538.02 1311.98 541.676 1307.62 545.103 1303.24C545.8 1302.4 544.115 1301.87 543.418 1302.71C540.033 1306.89 536.477 1311.22 532.068 1314.81C531.341 1315.58 532.683 1316.41 533.539 1315.68Z" fill="#A79F91"/>
<path d="M550.998 1315.68C555.479 1311.98 559.135 1307.62 562.562 1303.24C563.259 1302.4 561.574 1301.87 560.877 1302.71C557.492 1306.89 553.936 1311.22 549.527 1314.81C548.8 1315.58 550.142 1316.41 550.998 1315.68Z" fill="#A79F91"/>
<path d="M568.457 1315.68C572.938 1311.98 576.594 1307.62 580.021 1303.24C580.718 1302.4 579.033 1301.87 578.336 1302.71C574.951 1306.89 571.395 1311.22 566.986 1314.81C566.259 1315.58 567.601 1316.41 568.457 1315.68Z" fill="#A79F91"/>
<path d="M585.916 1315.68C590.397 1311.98 594.053 1307.62 597.48 1303.24C598.177 1302.4 596.492 1301.87 595.795 1302.71C592.41 1306.89 588.854 1311.22 584.445 1314.81C583.718 1315.58 585.06 1316.41 585.916 1315.68Z" fill="#A79F91"/>
<path d="M603.375 1315.68C607.856 1311.98 611.512 1307.62 614.939 1303.24C615.636 1302.4 613.951 1301.87 613.254 1302.71C609.869 1306.89 606.313 1311.22 601.904 1314.81C601.177 1315.58 602.519 1316.41 603.375 1315.68Z" fill="#A79F91"/>
<path d="M620.834 1315.68C625.315 1311.98 628.971 1307.62 632.398 1303.24C633.095 1302.4 631.41 1301.87 630.713 1302.71C627.328 1306.89 623.772 1311.22 619.363 1314.81C618.636 1315.58 619.978 1316.41 620.834 1315.68Z" fill="#A79F91"/>
<path d="M638.293 1315.68C642.774 1311.98 646.43 1307.62 649.857 1303.24C650.554 1302.4 648.869 1301.87 648.172 1302.71C644.787 1306.89 641.231 1311.22 636.822 1314.81C636.095 1315.58 637.437 1316.41 638.293 1315.68Z" fill="#A79F91"/>
<path d="M655.752 1315.68C660.233 1311.98 663.889 1307.62 667.316 1303.24C668.013 1302.4 666.328 1301.87 665.631 1302.71C662.246 1306.89 658.69 1311.22 654.281 1314.81C653.554 1315.58 654.896 1316.41 655.752 1315.68Z" fill="#A79F91"/>
<path d="M673.211 1315.68C677.692 1311.98 681.348 1307.62 684.775 1303.24C685.472 1302.4 683.787 1301.87 683.09 1302.71C679.705 1306.89 676.149 1311.22 671.739 1314.81C671.013 1315.58 672.355 1316.41 673.211 1315.68Z" fill="#A79F91"/>
<path d="M690.67 1315.68C695.151 1311.98 698.807 1307.62 702.234 1303.24C702.931 1302.4 701.246 1301.87 700.549 1302.71C697.164 1306.89 693.608 1311.22 689.198 1314.81C688.472 1315.58 689.814 1316.41 690.67 1315.68Z" fill="#A79F91"/>
<path d="M708.129 1315.68C712.61 1311.98 716.266 1307.62 719.693 1303.24C720.39 1302.4 718.705 1301.87 718.008 1302.71C714.623 1306.89 711.067 1311.22 706.657 1314.81C705.931 1315.58 707.273 1316.41 708.129 1315.68Z" fill="#A79F91"/>
<path d="M725.588 1315.68C730.069 1311.98 733.725 1307.62 737.152 1303.24C737.849 1302.4 736.164 1301.87 735.467 1302.71C732.082 1306.89 728.526 1311.22 724.116 1314.81C723.39 1315.58 724.732 1316.41 725.588 1315.68Z" fill="#A79F91"/>
<path d="M743.047 1315.68C747.527 1311.98 751.184 1307.62 754.61 1303.24C755.308 1302.4 753.623 1301.87 752.926 1302.71C749.541 1306.89 745.985 1311.22 741.575 1314.81C740.849 1315.58 742.191 1316.41 743.047 1315.68Z" fill="#A79F91"/>
<path d="M760.506 1315.68C764.986 1311.98 768.643 1307.62 772.069 1303.24C772.767 1302.4 771.082 1301.87 770.385 1302.71C767 1306.89 763.444 1311.22 759.034 1314.81C758.308 1315.58 759.65 1316.41 760.506 1315.68Z" fill="#A79F91"/>
<path d="M777.965 1315.68C782.445 1311.98 786.102 1307.62 789.528 1303.24C790.226 1302.4 788.541 1301.87 787.844 1302.71C784.459 1306.89 780.903 1311.22 776.493 1314.81C775.767 1315.58 777.109 1316.41 777.965 1315.68Z" fill="#A79F91"/>
<path d="M795.424 1315.68C799.904 1311.98 803.561 1307.62 806.987 1303.24C807.684 1302.4 806 1301.87 805.303 1302.71C801.918 1306.89 798.362 1311.22 793.952 1314.81C793.226 1315.58 794.568 1316.41 795.424 1315.68Z" fill="#A79F91"/>
<path d="M807 1312H40V1316H807V1312Z" fill="#A79F91"/>
<g clip-path="url(#clip2_1514_104940)">
<path d="M807 1314C820.31 1314 833.619 1306.39 840.398 1301.84C843.39 1299.83 845 1296.41 845 1292.8L845 1276" stroke="#A79F91" stroke-width="4"/>
<path d="M813.688 1314.68C818.168 1310.98 821.825 1306.62 825.251 1302.24C825.948 1301.4 824.264 1300.87 823.567 1301.71C820.182 1305.89 816.625 1310.22 812.216 1313.81C811.49 1314.58 812.832 1315.41 813.688 1314.68Z" fill="#A79F91"/>
</g>
<rect x="14" y="10" width="831" height="1292" rx="10" stroke="#A79F91" stroke-width="4"/>
<defs>
<clipPath id="clip0_1514_104940">
<rect width="40" height="40" fill="white" transform="translate(0 8)"/>
</clipPath>
<clipPath id="clip1_1514_104940">
<rect width="40" height="40" fill="white" transform="translate(0 1276)"/>
</clipPath>
<clipPath id="clip2_1514_104940">
<rect width="40" height="40" fill="white" transform="translate(807 1276)"/>
</clipPath>
</defs>
</svg>
